Wanted (2008) [BDRip720p][Nautilus-BT]
Join www.nautilus-bt.org

[img]http://img255.imageshack.us/img255/1148/wantedbluray3d.jpg[/img]

Link IMDb : http://www.imdb.com/title/tt0493464/

A frustrated office worker learns that he is the son of a professional assassin, and that he shares his father's superhuman killing abilities.


Titolo italiano : Wanted - Scegli il tuo destino
Titolo originale : Wanted
Anno : 2008
Genere : azione - fantastico - pulp
Paese : USA
Sceneggiatura : Michael Brandt, Derek Haas
Regia : Timur Bekmambetov
Soggetto : Mark Millar (fumetto)


Lingue : Italiano - Inglese
Sottotitoli : italiano
Sottotitoli per non udenti : inglese
Cartelli : italiano
Capitoli : si


[img]http://img819.imageshack.us/img819/121/wantedquanticoso.png[/img]

General
Complete name                    : I:\Wanted (2008) [BDRip720p.Italian.English.Subs.Chapters] [Nautilus-BT]\Wanted (2008) [BDRip720p Ita-Eng] by Pitt@Sk8.mkv
Format                           : Matroska
File size                        : 4.38 GiB
Duration                         : 1h 49mn
Overall bit rate                 : 5 703 Kbps
Encoded date                     : UTC 2011-01-03 16:31:15
Writing application              : mkvmerge v4.0.0 ('The Stars were mine') built on Jun  6 2010 16:18:42
Writing library                  : libebml v1.0.0 + libmatroska v1.0.0

Video
ID                               : 1
Format                           : AVC
Format/Info                      : Advanced Video Codec
Format profile                   : High@L4.1
Format settings, CABAC           : Yes
Format settings, ReFrames        : 3 frames
Muxing mode                      : Container profile=Unknown@4.1
Codec ID                         : V_MPEG4/ISO/AVC
Duration                         : 1h 49mn
Bit rate mode                    : Variable
Bit rate                         : 4 160 Kbps
Maximum bit rate                 : 50.0 Mbps
Width                            : 1 280 pixels
Height                           : 544 pixels
Display aspect ratio             : 16:9
Frame rate                       : 23.976 fps
Color space                      : YUV
Chroma subsampling               : 4:2:0
Bit depth                        : 8 bits
Scan type                        : Progressive
Bits/(Pixel*Frame)               : 0.249
Stream size                      : 3.12 GiB (71%)
Title                            : BDRip720p by Pitt@Sk8
Writing library                  : x264 core 104 r1713 c276662
Encoding settings                : cabac=1 / ref=3 / deblock=1:0:0 / analyse=0x3:0x133 / me=hex / subme=7 / psy=1 / psy_rd=1.00:0.00 / mixed_ref=1 / me_range=16 / chroma_me=1 / trellis=1 / 8x8dct=1 / cqm=0 / deadzone=21,11 / fast_pskip=1 / chroma_qp_offset=-2 / threads=6 / sliced_threads=0 / slices=4 / nr=0 / decimate=1 / interlaced=0 / constrained_intra=0 / bframes=3 / b_pyramid=1 / b_adapt=1 / b_bias=0 / direct=1 / weightb=1 / open_gop=2 / weightp=2 / keyint=240 / keyint_min=23 / scenecut=40 / intra_refresh=0 / rc_lookahead=40 / rc=2pass / mbtree=1 / bitrate=4160 / ratetol=1.0 / qcomp=0.60 / qpmin=10 / qpmax=51 / qpstep=4 / cplxblur=20.0 / qblur=0.5 / vbv_maxrate=50000 / vbv_bufsize=50000 / ip_ratio=1.40 / aq=1:1.00 / nal_hrd=vbr

Audio #1
ID                               : 2
Format                           : AC-3
Format/Info                      : Audio Coding 3
Mode extension                   : CM (complete main)
Codec ID                         : A_AC3
Duration                         : 1h 49mn
Bit rate mode                    : Constant
Bit rate                         : 448 Kbps
Channel(s)                       : 6 channels
Channel positions                : Front: L C R, Side: L R, LFE
Sampling rate                    : 48.0 KHz
Bit depth                        : 16 bits
Stream size                      : 352 MiB (8%)
Title                            : Italiano AC3 5.1 448 kbps - Pitt@Sk8
Language                         : Italian

Audio #2
ID                               : 3
Format                           : DTS
Format/Info                      : Digital Theater Systems
Codec ID                         : A_DTS
Duration                         : 1h 49mn
Bit rate mode                    : Constant
Bit rate                         : 755 Kbps
Channel(s)                       : 6 channels
Channel positions                : Front: L C R, Side: L R, LFE
Sampling rate                    : 48.0 KHz
Bit depth                        : 24 bits
Stream size                      : 593 MiB (13%)
Title                            : Italiano DTS 5.1 768 kbps - Pitt@Sk8
Language                         : Italian

Audio #3
ID                               : 4
Format                           : AC-3
Format/Info                      : Audio Coding 3
Mode extension                   : CM (complete main)
Codec ID                         : A_AC3
Duration                         : 1h 49mn
Bit rate mode                    : Constant
Bit rate                         : 320 Kbps
Channel(s)                       : 6 channels
Channel positions                : Front: L C R, Side: L R, LFE
Sampling rate                    : 48.0 KHz
Bit depth                        : 16 bits
Stream size                      : 252 MiB (6%)
Title                            : English AC3 5.1 320 kbps - Pitt@Sk8
Language                         : English

Text #1
ID                               : 5
Format                           : VobSub
Codec ID                         : S_VOBSUB
Codec ID/Info                    : The same subtitle format used on DVDs
Title                            : Cartelli - Italiano
Language                         : Italian

Text #2
ID                               : 6
Format                           : VobSub
Codec ID                         : S_VOBSUB
Codec ID/Info                    : The same subtitle format used on DVDs
Title                            : Sottotitoli - Italiano
Language                         : Italian

Text #3
ID                               : 7
Format                           : VobSub
Codec ID                         : S_VOBSUB
Codec ID/Info                    : The same subtitle format used on DVDs
Title                            : Subtitle English [deaf]
Language                         : English

Menu
00:00:00.000                     : en:Wanted -01- Pitt@Sk8
00:07:01.921                     : en:Wanted -02- Pitt@Sk8
00:12:58.236                     : en:Wanted -03- Pitt@Sk8
00:20:58.591                     : en:Wanted -04- Pitt@Sk8
00:26:25.834                     : en:Wanted -05- Pitt@Sk8
00:32:11.513                     : en:Wanted -06- Pitt@Sk8
00:37:30.373                     : en:Wanted -07- Pitt@Sk8
00:42:04.689                     : en:Wanted -08- Pitt@Sk8
00:45:22.136                     : en:Wanted -09- Pitt@Sk8
00:51:52.901                     : en:Wanted -10- Pitt@Sk8
00:56:23.839                     : en:Wanted -11- Pitt@Sk8
01:00:58.780                     : en:Wanted -12- Pitt@Sk8
01:04:00.211                     : en:Wanted -13- Pitt@Sk8
01:09:42.637                     : en:Wanted -14- Pitt@Sk8
01:13:32.033                     : en:Wanted -15- Pitt@Sk8
01:20:23.777                     : en:Wanted -16- Pitt@Sk8
01:27:10.684                     : en:Wanted -17- Pitt@Sk8
01:33:24.557                     : en:Wanted -18- Pitt@Sk8
01:39:26.460                     : en:Wanted -19- Pitt@Sk8
01:42:22.053                     : en:Wanted -20- Pitt@Sk8


[img]http://img832.imageshack.us/img832/3839/wanted2008bdrip720pitae.jpg[/img]

[img]http://img152.imageshack.us/img152/3839/wanted2008bdrip720pitae.jpg[/img]

[img]http://img717.imageshack.us/img717/3839/wanted2008bdrip720pitae.jpg[/img]

[img]http://img545.imageshack.us/img545/3839/wanted2008bdrip720pitae.jpg[/img]

[img]http://img824.imageshack.us/img824/3839/wanted2008bdrip720pitae.jpg[/img]

[img]http://img35.imageshack.us/img35/3839/wanted2008bdrip720pitae.jpg[/img]

Join www.nautilus-bt.org
